<svg id="Layer_1" data-name="Layer 1" xmlns="http://www.w3.org/2000/svg" viewBox="0 0 1000 600"><defs><style>.cls-1{fill:#010101}.cls-3{fill:#231f20}</style></defs><path class="cls-1" d="M470.64 170.38l-12-18.47a39 39 0 0165.14 6.94l-32.28-1.7c-9.16-.53-17.86 4.61-20.86 13.23zm5.17 6.05A13.15 13.15 0 10489 163.28a13.15 13.15 0 00-13.19 13.15zm49.53-14l-22 1.14c6 7 6.05 17 1 24.72l-17.63 27.11a39 39 0 0038.56-53zM471 183.92l-14.68-28.86A39 39 0 00482.91 215l10-19.63c-9.05 1.7-17.8-3.27-21.93-11.4zm-183 69.75l7.38 83.69 33.11 11 33.32-11 7.38-83.69zm65.16 27.05h-38.88l.87 10.44h37.13l-2.88 31.38-20.7 5.71v.06h-.23l-20.87-5.77-1.27-16h10.09l.74 8.06 11.31 3.06 11.35-3.06 1.27-13.15H305.8l-2.7-30.79h51zm178.73-25.8l-13.18 75.76-46 16.47-39.66-16.47 4-19.52H454l-1.65 8.36 24 9.14 27.6-9.14 3.87-20h-68.67l3.29-16.88h68.7l2.16-10.85h-68.63l3.33-16.87zm52.47-1.25V344h93.18v-90.33zm50.71 70.41c0 8.79-5.33 12.8-13.09 12.8-7 0-11.06-3.51-13.14-7.76L616 325c1.37 2.36 2.62 4.35 5.64 4.35s4.7-1.09 4.7-5.34v-28.89h8.76v29zm20.71 12.8c-8.13 0-13.39-3.75-15.95-8.67l7.13-4c1.88 3 4.33 5.16 8.64 5.16 3.62 0 5.95-1.75 5.95-4.19 0-2.9-2.38-3.93-6.39-5.64l-2.18-.91c-6.33-2.6-10.51-5.88-10.51-12.8 0-6.36 5-11.2 12.81-11.2 5.58 0 9.57 1.87 12.44 6.79l-6.82 4.23c-1.5-2.6-3.12-3.62-5.64-3.62s-4.18 1.57-4.18 3.62c0 2.54 1.63 3.57 5.39 5.16l2.18.91c7.45 3.08 11.63 6.25 11.63 13.34 0 7.62-6.2 11.81-14.5 11.81zM762 462.23a9.65 9.65 0 01-4.78-1.28L742 452c-2.26-1.28-1.15-1.73-.42-2a29.73 29.73 0 006.87-3.13 1.12 1.12 0 011.14.1l11.67 6.92a1.45 1.45 0 001.4 0l45.48-26.25a1.46 1.46 0 00.69-1.23v-52.5a1.46 1.46 0 00-.72-1.25l-45.45-26.23a1.45 1.45 0 00-1.4 0l-45.43 26.25a1.46 1.46 0 00-.72 1.26v52.47a1.39 1.39 0 00.72 1.21l12.46 7.18c6.77 3.38 10.91-.59 10.91-4.6v-51.81a1.3 1.3 0 011.33-1.3h5.76a1.32 1.32 0 011.33 1.3v51.84c0 9-4.93 14.18-13.47 14.18-2.64 0-4.71 0-10.47-2.86l-11.91-6.87a9.56 9.56 0 01-4.78-8.3v-52.47a9.58 9.58 0 014.78-8.29l45.42-26.25a10 10 0 019.56 0l45.48 26.27a9.59 9.59 0 014.77 8.3v52.47a9.65 9.65 0 01-4.77 8.3L766.77 461a9.54 9.54 0 01-4.77 1.23zm36.7-51.73c0-9.82-6.64-12.43-20.61-14.28-14.13-1.87-15.56-2.83-15.56-6.13 0-2.73 1.21-6.38 11.67-6.38 9.34 0 12.78 2 14.21 8.33a1.32 1.32 0 001.28 1h5.91a1.28 1.28 0 001-.42 1.38 1.38 0 00.35-1c-.92-10.86-8.13-15.9-22.71-15.9-13 0-20.7 5.46-20.7 14.65 0 9.94 7.7 12.7 20.14 13.93 14.89 1.46 16.05 3.65 16.05 6.58 0 5.07-4.09 7.24-13.66 7.24-12 0-14.68-3-15.57-9a1.29 1.29 0 00-1.3-1.1h-5.89a1.3 1.3 0 00-1.3 1.3c0 7.66 4.16 16.79 24.08 16.79 14.38 0 22.65-5.71 22.65-15.61zM564 438c0 9-8.41 8.77-9.3 8.77h-17.13v-17.3h17.13c9.01-.04 9.3 6.72 9.3 8.53zm-10.62-15.49c.14 0 8.14.21 8.14-7.69 0-3.28-.74-7.59-8.14-7.59h-15.81v15.28zm43.59-28v63.24a15.86 15.86 0 01-15.81 15.81h-63.24a15.85 15.85 0 01-15.81-15.81v-63.26a15.86 15.86 0 0115.81-15.81h63.24A15.86 15.86 0 01597 394.49zm-23.28 44.72c0-4.57-1.41-12.34-10.39-14.26v-.15c4.85-2.07 7.91-6 7.91-11.78 0-1.49.42-13.72-16.43-13.72h-26.89v55.33c27.15 0 29.61.36 34.64-1.21 3-.95 11.16-3.82 11.16-14.23zM850 80.45L847.35 85l-.85 14.86c0 1.65-5.25 3-11.7 3s-11.69-1.34-11.69-3L822 85.15l-2.76-4.7c7.67 3.2 23.38 3.09 30.76 0zm-36.35-46.94l2.52 23.26c1.09-3.71 3.85-8.71 7.41-10.23a3.64 3.64 0 013.46.17 4.56 4.56 0 011.87 2.18c.22 1.21-.37 1.69-.83 1.69s-1-.85-1.26-1.35c-.76-1.36-1.91-1.41-3.13-.52a12.62 12.62 0 00-3.17 3.83 21.65 21.65 0 00-2.22 5.23 6.6 6.6 0 00-.12 3.68 1 1 0 00.91.67c.93 0 2.28-1.22 2.93-1.87a14.29 14.29 0 002.32-3l1-2.88c.48-1.26 1.83-1 1.83 0 0 1.89-.68 2.52-1.85 6.43l-1.41 4.78c-.13.52-.63 1.39-1.16 1.39a.54.54 0 01-.49-.22 2.46 2.46 0 01-.14-1.17c0-.59 1.16-4.11 1.35-4.67-.37.41-.76.82-1.19 1.23-1 .94-2.61 2.18-4 2.18a2.26 2.26 0 01-1.43-.44l1.41 14.75c.37.92 7.26 3.17 16.34 3.17s16-2.27 16.34-3.17l2-17.53a14.57 14.57 0 01-3.63 2.74c-1 .43-3.22.71-3.22-1.05 0-1 1.68-2.75 2.67-4a3.69 3.69 0 00.87-1.5c0-.54-1.11-.41-2.17.46a10.62 10.62 0 00-1.61 1.8 14.77 14.77 0 00-1.58 2.87 41.68 41.68 0 00-1.68 4.08c-.93 2.46-.78 2.19-1 2.59a1.73 1.73 0 01-.74.84 1.14 1.14 0 01-1.13-.06.77.77 0 01-.24-.68 2.07 2.07 0 01.06-.5 65.71 65.71 0 012.78-6.36c.29-.68.18-.48.14-.43a9.73 9.73 0 01-2.66 1.95c-1.08.48-2.41.48-2.69-.76v-.22c-2.18 1.7-4.5 2.17-3.7-1.5a5 5 0 01-4.15 2.76 1.53 1.53 0 01-1.6-1c-.42-1 .24-2.76.85-4.41.32-.83.75-1.83 1.32-3 .3-.63.78-1 1.41-.83a1 1 0 01.29.13c.49.33.3.83.06 1.33a20 20 0 00-1.72 3.86c-.17.61-.37 1.66.28 1.66a2.15 2.15 0 001.27-.44 7.91 7.91 0 002.06-2.5 12.68 12.68 0 001-2.28 5.85 5.85 0 01.33-.89c.21-.46.48-1 1-1a.75.75 0 01.6.28 1.23 1.23 0 01.07 1.28c-.37 1-.87 2-1.28 3.09a6.91 6.91 0 00-.5 2.17c0 .63.69.48 1.26.22a5.29 5.29 0 001.26-.83c.23-.91.17-.7 4.89-12.64a1.23 1.23 0 011.13-.87 1 1 0 01.6.21A1.07 1.07 0 01844 49c-.13.35-.11.24-.83 1.94-1 2.24-1.59 3.86-2.45 5.91-.35.85-1.42 3.5-1.61 4.13-.11.41-.24 1.08.19 1.08 1 0 3.57-2.43 4.28-3.15 0-.06.09-.08.16-.11.11-.35.23-.69.32-1a7.09 7.09 0 011-2.1.68.68 0 01.5-.29c.52 0 .78.22.78.74a5.94 5.94 0 01-.21 1.15q.39-.42.84-.84c2.78-2.57 4.76-1.26 4.76 0s-1.65 3.28-2.56 4.34a6.75 6.75 0 00-.92 1.18c0 .24.16.34.4.34s1.19-.65 1.49-.87c.92-.73 2.18-1.84 3.07-2.62l2.74-25.34c-5.65 3.17-36.61 3.18-42.29 0zm42.55-1.57c0 3.89-42.83 3.89-42.83 0 0-1.63 9.59-3 21.42-3 1.66 0 3.29 0 4.87.08L842 20l11.35-11.91c.26-.26 1.08 0 1.84.65s1.22 1.47 1 1.73l-10.66 11.22-1.85 7.54c7.39.49 12.52 1.5 12.52 2.71zm-12.85.85c0-.15-.17-.28-.47-.39v.15c0 .24-.93.45-2.06.45s-2.06-.21-2.06-.45a.07.07 0 010-.06v-.12c-.34.11-.56.25-.56.42 0 .39 1.15.69 2.54.69s2.58-.3 2.58-.69zM772.48 200.9c-1-.32-1.92-.62-2.88-.91.16-.66.3-1.32.44-2 2.19-10.62.75-19.15-4.11-22-4.69-2.69-12.34.11-20.07 6.85-.77.65-1.51 1.35-2.23 2-.48-.46-1-.92-1.48-1.37-8.1-7.2-16.23-10.23-21.09-7.39-4.67 2.71-6.06 10.74-4.1 20.79.19 1 .41 2 .66 3-1.14.32-2.27.68-3.32 1.05-9.51 3.3-16.34 8.5-16.34 13.88 0 5.56 7.27 11.14 17.16 14.52.8.27 1.61.54 2.43.77-.27 1.07-.5 2.12-.72 3.21-1.87 9.89-.41 17.73 4.26 20.42s12.9-.07 20.78-7c.62-.55 1.25-1.12 1.87-1.73.78.77 1.6 1.5 2.42 2.21 7.63 6.56 15.17 9.21 19.82 6.52 4.81-2.78 6.38-11.21 4.35-21.47-.16-.78-.34-1.59-.54-2.4l1.68-.52c10.28-3.4 17.73-8.91 17.73-14.56 0-5.4-7-10.64-16.72-14zm-24.11-15.13c6.63-5.77 12.82-8 15.63-6.41 3 1.73 4.17 8.71 2.28 17.89-.12.6-.25 1.19-.41 1.78a91.73 91.73 0 00-12-1.89 90.84 90.84 0 00-7.59-9.46c.72-.68 1.38-1.28 2.09-1.91zm-20.61 38.35c.91 1.55 1.83 3.1 2.81 4.61a79.53 79.53 0 01-8.27-1.33c.79-2.57 1.77-5.22 2.91-7.93.82 1.57 1.66 3.12 2.55 4.65zm-5.4-21.44c2.56-.57 5.29-1 8.12-1.39-.94 1.48-1.87 3-2.74 4.53s-1.73 3.06-2.53 4.63a84.26 84.26 0 01-2.85-7.77zm4.88 12.32c1.18-2.46 2.46-4.87 3.81-7.24s2.82-4.66 4.35-6.93c2.67-.19 5.4-.3 8.18-.3s5.52.11 8.18.3c1.51 2.25 3 4.55 4.33 6.9s2.65 4.76 3.87 7.2q-1.8 3.69-3.85 7.27c-1.36 2.37-2.8 4.67-4.32 7-2.65.19-5.41.28-8.21.28s-5.51-.09-8.13-.25q-2.33-3.39-4.38-6.95c-1.37-2.37-2.64-4.77-3.83-7.23zm32.18 9.12c.91-1.57 1.77-3.15 2.6-4.75a81.61 81.61 0 013 7.89 79 79 0 01-8.37 1.42c1-1.49 1.87-3 2.76-4.56zm2.58-13.67q-1.26-2.35-2.59-4.67t-2.72-4.49a82.62 82.62 0 018.18 1.43 81.41 81.41 0 01-2.87 7.73zm-18.37-20a80 80 0 015.27 6.38c-3.53-.16-7.07-.16-10.6 0 1.7-2.34 3.53-4.48 5.32-6.43zM723 179.48c3-1.74 9.64.75 16.64 7 .44.39.89.82 1.35 1.25a90 90 0 00-7.64 9.46 95.26 95.26 0 00-12 1.85c-.23-.91-.42-1.83-.62-2.76-1.67-8.62-.57-15.13 2.25-16.75zm-4.37 47c-.75-.21-1.48-.44-2.21-.69a36.4 36.4 0 01-11.23-5.56 8 8 0 01-3.35-5.33c0-3.26 5.64-7.43 13.76-10.26 1-.36 2.05-.68 3.08-1A97.07 97.07 0 00723 215a97.29 97.29 0 00-4.42 11.45zm20.78 17.47a32.87 32.87 0 01-10.05 6.29 7.91 7.91 0 01-6.29.23c-2.84-1.64-4-7.93-2.41-16.4.2-1 .41-2 .66-3a89.5 89.5 0 0012.1 1.74 92.84 92.84 0 007.7 9.52c-.57.55-1.14 1.09-1.71 1.59zm4.36-4.33c-1.81-2-3.63-4.14-5.4-6.47 1.71.07 3.48.1 5.26.1s3.64 0 5.42-.12a78.27 78.27 0 01-5.33 6.46zm23.23 5.31a7.91 7.91 0 01-2.94 5.58c-2.83 1.64-8.87-.5-15.39-6.1-.75-.64-1.5-1.33-2.27-2a88.53 88.53 0 007.52-9.56 86.52 86.52 0 0012.16-1.87c.17.73.33 1.46.48 2.18a32.54 32.54 0 01.44 11.81zm3.25-19.15c-.5.16-1 .32-1.52.46a91.31 91.31 0 00-4.54-11.37 89.66 89.66 0 004.36-11.21c.93.27 1.82.55 2.68.84 8.3 2.85 14.13 7.09 14.13 10.33.01 3.5-6.21 8.01-15.1 10.95zm-26.68-2.68a8.16 8.16 0 10-8.16-8.16 8.16 8.16 0 008.16 8.16zM658.86 62.24h-16.15L631 80.85l-10.13-18.61h-37l47 80.58 47-80.58zM595.6 69h11.3l24.1 41.59L655 69h11.3L631 129.49 595.6 69zm41.27 490zm40.62-14.19A21.42 21.42 0 00668 547c-1-1.94-1.95-3.63-2.12-4.91a13.49 13.49 0 01-.18-4.12 35.92 35.92 0 011.24-4.44c0-.18-.22-1.07-2.33-1.09s-3.91.41-4.12 1a21.24 21.24 0 00-.87 3.12c-.37 1.91-4.2 8.72-6.37 12.28a12.6 12.6 0 01-1.45-3.59 13 13 0 01-.18-4.13 35.58 35.58 0 011.24-4.43c0-.18-.23-1.08-2.33-1.09s-3.91.4-4.13 1-.44 1.86-.86 3.11-5.53 12.61-6.86 15.56c-.69 1.5-1.27 2.7-1.7 3.52-.06.13-.11.21-.14.28s.08-.17.08-.13c-.36.7-.57 1.09-.57 1.09-.28.52-.59 1-.74 1a6.89 6.89 0 01.05-3.25c.77-3.94 2.58-10.07 2.56-10.28s.34-1.18-1.19-1.75a1.91 1.91 0 00-2.15.36c-.13 0-.23.33-.23.33s1.65-6.92-3.16-6.92c-3 0-7.18 3.3-9.23 6.28l-7 3.83-3.37 1.86-.23-.24c-5.84-6.23-16.61-10.63-16.16-19 .17-3.05 1.23-11.05 20.72-20.77 16-8 28.76-5.77 31-.92 3.16 6.93-6.83 19.83-23.43 21.69-6.32.7-9.65-1.74-10.48-2.66s-1-1-1.32-.83c-.54.29-.19 1.14 0 1.65.49 1.29 2.53 3.57 6 4.71 3 1 10.47 1.55 19.43-1.92 10.08-3.88 17.92-14.69 15.62-23.74-2.34-9.2-17.59-12.22-32-7.1-8.59 3.05-17.88 7.85-24.57 14.09-7.94 7.44-9.21 13.91-8.68 16.62 1.85 9.6 15.09 15.86 20.39 20.49l-.74.41c-2.65 1.32-12.74 6.6-15.27 12.18-2.85 6.33.47 10.86 2.66 11.48 6.81 1.89 13.79-1.52 17.54-7.11s3.29-12.9 1.56-16.22a1.39 1.39 0 01-.06-.13l2.08-1.23c1.35-.8 2.68-1.53 3.83-2.17a25.6 25.6 0 00-1.37 6.95c-.29 3.59 1.19 8.23 3.12 10.06a3.42 3.42 0 002.51.82c2.25 0 3.26-1.86 4.38-4.08 1.39-2.71 2.61-5.85 2.61-5.85s-1.53 8.51 2.66 8.51c1.53 0 3.06-2 3.75-3a1.75 1.75 0 01.11-.2 4.07 4.07 0 00.25-.39v-.05c.62-1.06 2-3.49 4-7.5 2.64-5.18 5.16-11.66 5.16-11.66a33.53 33.53 0 001 4.21 37.39 37.39 0 002.18 4.89c-.62.85-1 1.34-1 1.34-.49.65-1 1.36-1.61 2-2.09 2.48-4.57 5.32-4.89 6.13a1.67 1.67 0 00.45 2.24 4 4 0 002.56.4 11.06 11.06 0 003.83-.88 13.27 13.27 0 003.29-1.73 7.37 7.37 0 003.17-6.49 13.55 13.55 0 00-1.19-4.59c.18-.26.37-.54.55-.82a85.91 85.91 0 005.72-9.88 35.18 35.18 0 001 4.2 29.49 29.49 0 001.86 4.19 18.1 18.1 0 00-5.56 7.19c-1.2 3.48-.26 5 1.52 5.4a5.39 5.39 0 002.79-.57 13.05 13.05 0 003.52-1.81c2-1.5 4-3.6 3.88-6.46a12.26 12.26 0 00-.88-3.81 19.94 19.94 0 0110.12-1.18c9.08 1.06 10.86 6.74 10.51 9.1a6 6 0 01-2.88 4.08c-.64.39-.83.54-.78.83s.37.41.91.31a7.08 7.08 0 004.94-6.31c.26-5.54-5.07-11.64-14.51-11.59zm-70 23.6c-3 3.27-7.2 4.51-9 3.47s-1.18-5.95 2.52-9.45a48.19 48.19 0 017.08-5.28L610 556l.19-.12c.15-.1.31-.18.48-.28a13 13 0 01-3.12 12.77zm21.91-14.91c-1 2.56-3.24 9.08-4.58 8.74-1.14-.29-1.84-5.27-.23-10.16a22.69 22.69 0 013.57-6.54c1.65-1.84 3.46-2.42 3.88-1.69.57 1-2 8-2.64 9.65zm18.1 8.64c-.44.23-.85.38-1 .26s.18-.39.18-.39 2.27-2.43 3.17-3.53c.52-.66 1.12-1.42 1.77-2.27v.26c0 2.92-2.82 4.89-4.1 5.67zm14-3.18c-.32-.22-.27-1 .82-3.37a12.59 12.59 0 013.1-4 6.27 6.27 0 01.31 1.77 5.75 5.75 0 01-4.23 5.6zM492.92 8a44.51 44.51 0 1024.31 81.8 4.32 4.32 0 001-6.34l-1.83-2.24a4.3 4.3 0 00-5.63-.92 33 33 0 11-17.85-60.81c18 0 33 10.34 33 28.71 0 7-3.79 14.32-10.44 15-3.11-.09-3-2.31-2.42-5.39l4.21-21.74a4.32 4.32 0 00-4.2-5.07H505a2.43 2.43 0 00-2.41 2.16c-2.64-3.21-7.26-3.91-10.76-3.91-13.39 0-24.74 11.17-24.74 27.19 0 11.72 6.6 19 17.23 19a18.17 18.17 0 0013.46-6.88c1.71 6.12 7.29 6.12 12.69 6.12 19.55 0 27-12.85 27-26.46C537.44 23.72 517.7 8 492.92 8zM489 62.63c-4 0-6.47-2.8-6.47-7.32 0-8.07 5.52-13.05 10.52-13.05 4 0 6.39 2.73 6.39 7.32 0 8.08-6.08 13.05-10.44 13.05zM158.15 323.08c7.23-9.88 7.47-17.76 4.53-23.05-2-3.52-7.31-9.14-21-7.55C137.85 283.26 132 277 124.1 277s-13.76 6.29-17.62 15.51c-13.64-1.58-19 4-21 7.55-3 5.29-2.7 13.16 4.53 23.05-7.23 9.89-7.48 17.77-4.53 23.06 5.26 9.43 18.32 7.85 21 7.54 3.86 9.23 9.76 15.51 17.62 15.51s13.75-6.28 17.62-15.51c2.64.31 15.69 1.89 21-7.54 2.95-5.3 2.7-13.17-4.53-23.06zm-63 17.29c-.73-1.29 0-4.46 2.69-8.69q1.88 1.76 3.94 3.45.47 3.71 1.22 7.22c-4.43.16-7.19-.79-7.85-2zM101.8 311a78.375 78.375 0 00-3.94 3.45c-2.72-4.23-3.42-7.4-2.69-8.7.61-1.1 3-2.06 6.83-2.06.31 0 .7 0 1 .06-.51 2.4-.92 4.81-1.22 7.25zm22.3-22.54c1.7 0 4 2.43 6.1 6.71-2 .67-4 1.44-6.1 2.32-2.06-.88-4.08-1.65-6.1-2.32 2.1-4.24 4.39-6.67 6.1-6.67zm0 69.17c-1.71 0-4-2.44-6.1-6.72 2-.66 4-1.44 6.1-2.31 2.06.87 4.08 1.65 6.1 2.31-2.1 4.32-4.4 6.76-6.1 6.76zm11.26-28.34a77.66 77.66 0 01-11.26 6.75 77.66 77.66 0 01-11.26-6.75 72.36 72.36 0 010-12.49 77.66 77.66 0 0111.26-6.75 77.12 77.12 0 0111.26 6.75 74.42 74.42 0 010 12.53zm17.67 11c-.66 1.2-3.42 2.13-7.85 2 .5-2.35.91-4.75 1.22-7.22 1.38-1.13 2.68-2.28 3.94-3.45 2.72 4.23 3.41 7.4 2.69 8.69zm-2.69-25.88a83.913 83.913 0 00-3.94-3.46c-.31-2.43-.71-4.84-1.23-7.24.33 0 .72-.07 1-.07 3.88 0 6.22 1 6.83 2.07.75 1.38.06 4.55-2.66 8.78zm-26.24 2.83a5.77 5.77 0 105.76 5.76 5.76 5.76 0 00-5.76-5.68zm-3.43-238.96a15 15 0 10-19.17 14.36c-.11 3-.79 5.33-2.06 6.9-2.88 3.59-9.22 4.19-15.93 4.81-5.27.48-10.73 1-15.2 3.16V80.58a15 15 0 10-9 0v37.27a15 15 0 109.87.34 6.52 6.52 0 012.82-2.51c3-1.53 7.55-1.94 12.36-2.39 7.89-.73 16.83-1.57 22.1-8.12 2.62-3.25 4-7.44 4-12.7a15 15 0 0010.18-14.19zm-56.85-15a3 3 0 11-3 3 3 3 0 013-2.96zm0 71.81a3 3 0 113-3 3 3 0 01-3 3.04zm41.89-59.84a3 3 0 11-3 3 3 3 0 013-2.96zm165.65 96.41v1h-20.94v-20.95h1a3.89 3.89 0 012.77 1.15l16 16a3.93 3.93 0 011.17 2.8zm-22.25 6.23a3.94 3.94 0 01-3.93-3.93v-22.25h-32.73a3.92 3.92 0 00-3.92 3.92v75.93a3.93 3.93 0 003.92 3.92h55a3.93 3.93 0 003.93-3.92v-53.67zm-20.42 39.35a.88.88 0 01-1.25 0l-10.62-9.95a.89.89 0 010-1.25l10.62-9.95a.88.88 0 011.25 0l3.2 3.42a.88.88 0 010 1.25l-6.67 5.87 6.67 5.87a.89.89 0 01.08 1.25l-3.2 3.42zm8.39 8.26l-4.49-1.31a.87.87 0 01-.6-1.09l10-34.63a.88.88 0 011.09-.6l4.5 1.3a.9.9 0 01.6 1.1l-10 34.63a.89.89 0 01-1.1.6zm26.31-18.17l-10.61 9.95a.88.88 0 01-1.25 0l-3.21-3.42a.89.89 0 010-1.25l6.67-5.87-6.67-5.87a.87.87 0 01-.07-1.24l3.21-3.42a.88.88 0 011.25 0l10.68 9.79a.88.88 0 010 1.25zm704.44-28.48h-27v-27a6 6 0 00-6-6h-6a6 6 0 00-6 6v27h-27a6 6 0 00-6 6v6a6 6 0 006 6h27v27a6 6 0 006 6h6a6 6 0 006-6v-27h27a6 6 0 006-6v-6a6 6 0 00-6-6z"/><path class="cls-3" d="M435 172H331.64c-3.22 0-3.22 5 0 5H435c3.22 0 3.23-5 0-5z"/><path class="cls-3" d="M329.14 175.77v67.4c0 3.22 5 3.22 5 0v-67.4c0-3.22-5-3.23-5 0zM540.21 177h103.41c3.21 0 3.22-5 0-5H540.21c-3.21 0-3.22 5 0 5z"/><path class="cls-3" d="M641.12 175.77v67.4c0 3.22 5 3.22 5 0v-67.4c0-3.22-5-3.23-5 0z"/><path class="cls-1" d="M470.84 356.83v65.87c0 3.22 5 3.22 5 0v-65.87c0-3.22-5-3.22-5 0z"/><path class="cls-1" d="M474.11 425.38q10.8.06 21.61-.26c3.21-.1 3.22-5.1 0-5q-10.8.33-21.61.26c-3.22 0-3.23 5 0 5zm69.16 56.02v65.87c0 3.22 5 3.23 5 0V481.4c0-3.22-5-3.22-5 0z"/><path class="cls-1" d="M546.53 550q10.82.06 21.62-.26c3.21-.09 3.22-5.09 0-5q-10.81.33-21.62.26c-3.22 0-3.22 5 0 5zm79.11-199.2v65.87c0 3.22 5 3.22 5 0V350.8c0-3.22-5-3.23-5 0z"/><path class="cls-1" d="M628.53 419.82h70c3.22 0 3.22-5 0-5h-70c-3.22 0-3.22 5 0 5zm200.18.59h65.87c3.22 0 3.23-5 0-5h-65.87c-3.21 0-3.22 5 0 5z"/><path class="cls-1" d="M897.48 417.52l.5-106.31c0-3.22-5-3.23-5 0l-.5 106.31c0 3.21 5 3.22 5 0z"/><path class="cls-1" d="M894.89 308.88H748.36v5h3c3.22 0 3.23-5 0-5h-3c-3.22 0-3.22 5 0 5h146.53c3.22 0 3.23-5 0-5z"/><path class="cls-1" d="M748.7 313.88c3.22 0 3.22-5 0-5s-3.22 5 0 5z"/><path class="cls-1" d="M750.2 311.38v-53.49c0-3.21-5-3.22-5 0v53.49c0 3.22 5 3.23 5 0z"/><path class="cls-3" d="M685.43 101h60.18c3.22 0 3.23-5 0-5h-60.18c-3.22 0-3.23 5 0 5z"/><path class="cls-3" d="M743.11 99.46v67.4c0 3.22 5 3.23 5 0v-67.4c0-3.22-5-3.22-5 0z"/><path class="cls-1" d="M783.21 24.46H631.14c-3.22 0-3.22 5 0 5h152.07c3.22 0 3.23-5 0-5z"/><path class="cls-1" d="M628.46 27.72q-.06 10.81.26 21.62c.1 3.21 5.1 3.22 5 0q-.32-10.81-.26-21.62c0-3.22-5-3.22-5 0zM780.73 27q-.08 10.8.26 21.61c.09 3.21 5.09 3.23 5 0q-.33-10.8-.26-21.61c0-3.22-5-3.22-5 0z"/><path class="cls-1" d="M805.83 45.72q-10.83-.07-21.62.28c-3.21.1-3.22 5.1 0 5q10.81-.31 21.62-.25c3.22 0 3.22-5 0-5z"/><path class="cls-3" d="M861 57.72h70.84c3.21 0 3.22-5 0-5H861c-3.21 0-3.22 5 0 5z"/><path class="cls-3" d="M929.38 56.27v67.4c0 3.22 5 3.22 5 0v-67.4c0-3.22-5-3.23-5 0zM279.3 297.47h-40.21c-3.22 0-3.23 5 0 5h40.21c3.21 0 3.22-5 0-5z"/><path class="cls-3" d="M240.76 300l.13-50.71c0-3.21-5-3.22-5 0l-.13 50.71c0 3.22 5 3.23 5 0zM128.62 91.07H236c3.21 0 3.22-5 0-5H128.62c-3.21 0-3.22 5 0 5z"/><path class="cls-3" d="M233.46 89.46v48.48c0 3.22 5 3.22 5 0V89.46c0-3.22-5-3.22-5 0zM60.71 154.28v77.15c0 3.22 5 3.23 5 0v-4.79h-5v70h5V294c0-3.22-5-3.22-5 0v27.76c0 3.21 5 3.22 5 0V294h-5v2.6c0 3.22 5 3.22 5 0v-70c0-3.22-5-3.22-5 0v4.79h5v-77.11c0-3.22-5-3.23-5 0z"/><path class="cls-3" d="M63.36 324.29h15.19c3.22 0 3.23-5 0-5H63.36c-3.22 0-3.22 5 0 5z"/></svg>